<?xml version="1.0" encoding="UTF-8" standalone="no"?><!-- Generator: Gravit.io --><svg xmlns="http://www.w3.org/2000/svg" xmlns:xlink="http://www.w3.org/1999/xlink" style="isolation:isolate" viewBox="0 0 16 16" width="16pt" height="16pt"><g><circle vector-effect="non-scaling-stroke" cx="8" cy="8" r="2.3457300275482065" fill="rgb(74,134,232)"/><mask id="_mask_ZHyCThVCSuhvaYW5cdFLJ9rwAVtpVWhs"><ellipse vector-effect="non-scaling-stroke" cx="8" cy="8" rx="3.0455922865013765" ry="8" fill="white" stroke="none"/></mask><ellipse vector-effect="non-scaling-stroke" cx="8" cy="8" rx="3.0455922865013765" ry="8" fill="none"/><ellipse vector-effect="non-scaling-stroke" cx="8" cy="8" rx="3.0455922865013765" ry="8" fill="none" mask="url(#_mask_ZHyCThVCSuhvaYW5cdFLJ9rwAVtpVWhs)" stroke-width="1.2" stroke="rgb(116,116,116)" stroke-linejoin="miter" stroke-linecap="square" stroke-miterlimit="3"/><mask id="_mask_3NLpB7DiCjopoAEUfqTXlqZoxUdacXoO"><path d=" M 6.477 10.638 C 2.653 8.43 0.231 5.456 1.072 4 C 1.912 2.544 5.699 3.155 9.523 5.362 C 13.347 7.57 15.769 10.544 14.928 12 C 14.088 13.456 10.301 12.845 6.477 10.638 Z " fill="white" stroke="none"/></mask><path d=" M 6.477 10.638 C 2.653 8.43 0.231 5.456 1.072 4 C 1.912 2.544 5.699 3.155 9.523 5.362 C 13.347 7.57 15.769 10.544 14.928 12 C 14.088 13.456 10.301 12.845 6.477 10.638 Z " fill="none"/><path d=" M 6.477 10.638 C 2.653 8.43 0.231 5.456 1.072 4 C 1.912 2.544 5.699 3.155 9.523 5.362 C 13.347 7.57 15.769 10.544 14.928 12 C 14.088 13.456 10.301 12.845 6.477 10.638 Z " fill="none" mask="url(#_mask_3NLpB7DiCjopoAEUfqTXlqZoxUdacXoO)" vector-effect="non-scaling-stroke" stroke-width="1.2" stroke="rgb(116,116,116)" stroke-linejoin="miter" stroke-linecap="square" stroke-miterlimit="3"/><mask id="_mask_3hjdhAsmJ0eiF2t27EOsfLB6drohtfES"><path d=" M 6.477 5.362 C 10.301 3.155 14.088 2.544 14.928 4 C 15.769 5.456 13.347 8.43 9.523 10.638 C 5.699 12.845 1.912 13.456 1.072 12 C 0.231 10.544 2.653 7.57 6.477 5.362 Z " fill="white" stroke="none"/></mask><path d=" M 6.477 5.362 C 10.301 3.155 14.088 2.544 14.928 4 C 15.769 5.456 13.347 8.43 9.523 10.638 C 5.699 12.845 1.912 13.456 1.072 12 C 0.231 10.544 2.653 7.57 6.477 5.362 Z " fill="none"/><path d=" M 6.477 5.362 C 10.301 3.155 14.088 2.544 14.928 4 C 15.769 5.456 13.347 8.43 9.523 10.638 C 5.699 12.845 1.912 13.456 1.072 12 C 0.231 10.544 2.653 7.57 6.477 5.362 Z " fill="none" mask="url(#_mask_3hjdhAsmJ0eiF2t27EOsfLB6drohtfES)" vector-effect="non-scaling-stroke" stroke-width="1.2" stroke="rgb(116,116,116)" stroke-linejoin="miter" stroke-linecap="square" stroke-miterlimit="3"/><circle vector-effect="non-scaling-stroke" cx="14.071624396496805" cy="6.348485796340656" r="1.273830148957737" fill="rgb(255,153,0)"/><circle vector-effect="non-scaling-stroke" cx="9.417078941951356" cy="1.4192846944122828" r="1.273830148957737" fill="rgb(255,153,0)"/><circle vector-effect="non-scaling-stroke" cx="1.9283756035031934" cy="6.348485796340656" r="1.273830148957737" fill="rgb(255,153,0)"/></g></svg>